<?xml version="1.0" encoding="UTF-8" standalone="no"?>
<!-- Created with Inkscape (http://www.inkscape.org/) -->

<svg
   width="120"
   height="120"
   viewBox="0 0 120 120"
   version="1.1"
   id="svg1"
   xml:space="preserve"
   inkscape:export-filename="bitmap.png"
   inkscape:export-xdpi="819"
   inkscape:export-ydpi="819"
   xmlns:inkscape="http://www.inkscape.org/namespaces/inkscape"
   xmlns:sodipodi="http://sodipodi.sourceforge.net/DTD/sodipodi-0.dtd"
   xmlns="http://www.w3.org/2000/svg"
   xmlns:svg="http://www.w3.org/2000/svg"><sodipodi:namedview
     id="namedview1"
     pagecolor="#ffffff"
     bordercolor="#000000"
     borderopacity="0.25"
     inkscape:showpageshadow="2"
     inkscape:pageopacity="0.0"
     inkscape:pagecheckerboard="0"
     inkscape:deskcolor="#d1d1d1"
     inkscape:document-units="px"
     inkscape:zoom="1.7354167"
     inkscape:cx="-5.7623049"
     inkscape:cy="79.231693"
     inkscape:window-width="1920"
     inkscape:window-height="1051"
     inkscape:window-x="-9"
     inkscape:window-y="-9"
     inkscape:window-maximized="1"
     inkscape:current-layer="layer1"><inkscape:page
       x="0"
       y="0"
       width="120"
       height="120"
       id="page2"
       margin="0"
       bleed="0" /></sodipodi:namedview><defs
     id="defs1"><linearGradient
       id="swatch74"
       inkscape:swatch="solid"><stop
         style="stop-color:#000000;stop-opacity:1;"
         offset="0"
         id="stop74" /></linearGradient><linearGradient
       id="swatch73"
       inkscape:swatch="solid"><stop
         style="stop-color:#000000;stop-opacity:1;"
         offset="0"
         id="stop73" /></linearGradient></defs><g
     inkscape:groupmode="layer"
     id="layer2"
     inkscape:label="Layer 2"><path
       style="fill:#000000;stroke:#000000;stroke-width:0.966416;stroke-linecap:round;stroke-linejoin:round;stroke-dasharray:none;stroke-dashoffset:0;stroke-opacity:1;paint-order:normal"
       d="m 62.563691,111.75493 c 0,-0.14402 0.07877,-0.26187 0.175128,-0.26187 0.09729,0 0.175138,-0.46558 0.175138,-1.04754 0,-0.81475 -0.05835,-1.04753 -0.262707,-1.04753 -0.163459,0 -0.262698,-0.1649 -0.262698,-0.43647 0,-0.27159 0.09924,-0.43648 0.262698,-0.43648 0.144485,0 0.262707,-0.11785 0.262707,-0.26188 0,-0.14404 -0.118222,-0.26189 -0.262707,-0.26189 -0.163459,0 -0.262698,-0.16488 -0.262698,-0.43647 0,-0.27157 0.09924,-0.43647 0.262698,-0.43647 0.204324,0 0.262707,-0.23278 0.262707,-1.04754 0,-0.81474 -0.05835,-1.04752 -0.262707,-1.04752 -0.163459,0 -0.262698,-0.16489 -0.262698,-0.43648 0,-0.27159 0.09924,-0.43647 0.262698,-0.43647 0.145952,0 0.262707,-0.1552 0.262707,-0.34919 0,-0.19399 -0.116755,-0.34916 -0.262707,-0.34916 -0.163459,0 -0.262698,-0.1649 -0.262698,-0.43648 0,-0.24006 0.07886,-0.43647 0.175139,-0.43647 0.09729,0 0.175128,-0.46558 0.175128,-1.04753 0,-0.77553 -0.06292,-1.04754 -0.242279,-1.04754 -0.133261,0 -0.279956,-0.19642 -0.325984,-0.43648 -0.05607,-0.292682 -0.005,-0.43647 0.154709,-0.43647 0.131131,0 0.238426,-0.165535 0.238426,-0.36785 0,-0.255262 -0.08045,-0.337096 -0.262708,-0.26737 -0.188265,0.072 -0.262697,-0.01748 -0.262697,-0.315951 0,-0.22904 0.08847,-0.445834 0.196577,-0.481763 0.135945,-0.04513 0.157236,-0.403307 0.06906,-1.160963 -0.09283,-0.797043 -0.190148,-1.071701 -0.357222,-1.007783 -0.126316,0.04829 -0.275596,-0.0315 -0.33173,-0.177284 -0.161675,-0.420016 -0.120857,-0.585759 0.144247,-0.585759 0.16008,0 0.214243,-0.122236 0.154711,-0.349177 -0.05042,-0.192049 -0.192189,-0.349179 -0.315137,-0.349179 -0.339596,0 -0.47563,-0.541982 -0.191811,-0.764186 0.216064,-0.169163 0.20909,-0.327757 -0.05092,-1.156293 -0.213547,-0.680503 -0.381493,-0.946705 -0.576485,-0.913783 -0.325083,0.05488 -0.530696,-0.549733 -0.273972,-0.805649 0.245796,-0.245036 0.02605,-0.740475 -0.276983,-0.624542 -0.319941,0.122388 -0.530784,-0.424442 -0.279867,-0.725835 0.27849,-0.334504 -0.664887,-2.046438 -1.069564,-1.940943 -0.368376,0.09602 -0.744658,-0.455613 -0.486399,-0.713069 0.253265,-0.252481 -0.0069,-0.608668 -0.374946,-0.51279 -0.360936,0.09409 -0.807402,-0.490624 -0.513081,-0.671958 0.272269,-0.167745 -1.252181,-1.667367 -1.589034,-1.563158 -0.389488,0.120495 -0.776649,-0.175928 -0.652166,-0.499324 0.06569,-0.170744 -0.01971,-0.344235 -0.223049,-0.452698 -0.224773,-0.119921 -0.349107,-0.11759 -0.390876,0.0073 -0.09858,0.294845 -0.690844,-0.0271 -0.623415,-0.338887 0.03992,-0.184716 -0.247035,-0.479509 -0.823293,-0.845677 -0.725251,-0.460851 -0.91748,-0.518841 -1.067057,-0.32189 -0.244459,0.321884 -0.780801,0.0237 -0.780801,-0.434088 0,-0.224109 -0.119727,-0.340504 -0.350266,-0.340504 -0.192655,0 -0.350276,0.08133 -0.350276,0.180732 0,0.122536 -0.112784,0.120558 -0.350267,-0.0061 -0.192655,-0.102781 -0.350267,-0.291284 -0.350267,-0.418897 0,-0.23543 -1.262802,-0.803227 -1.786394,-0.803227 -0.157325,0 -0.313818,0.08306 -0.34776,0.184582 -0.08322,0.249006 -0.668008,0.01102 -0.668008,-0.271875 0,-0.123489 -0.124661,-0.272214 -0.277033,-0.330499 -0.394086,-0.150757 -0.42351,-0.138628 -0.42351,0.174588 0,0.184108 -0.09521,0.24413 -0.277023,0.174589 -0.152362,-0.05829 -0.357826,-0.105973 -0.45658,-0.105973 -0.09878,0 -0.135292,-0.114958 -0.08124,-0.255463 0.07183,-0.186551 -0.07668,-0.283916 -0.55045,-0.360944 -0.356825,-0.05801 -0.865516,-0.145713 -1.130404,-0.194882 -0.36695,-0.06811 -0.481625,-0.02086 -0.481625,0.198499 0,0.198699 -0.122085,0.270613 -0.394056,0.232107 -0.216729,-0.03068 -0.394046,-0.172563 -0.394046,-0.315282 0,-0.14272 -0.137917,-0.285971 -0.306487,-0.318333 -0.187036,-0.03591 -0.306487,0.04821 -0.306487,0.215847 0,0.176603 -0.156335,0.274684 -0.437836,0.274684 -0.257486,0 -0.437845,-0.10018 -0.437845,-0.243204 0,-0.133764 -0.124651,-0.290894 -0.277024,-0.349178 -0.450744,-0.17243 -1.824595,-0.120766 -1.824595,0.06861 0,0.09602 -0.197023,0.174589 -0.437836,0.174589 -0.272426,0 -0.437835,-0.09893 -0.437835,-0.261883 0,-0.145491 -0.155671,-0.261884 -0.350267,-0.261884 -0.204958,0 -0.350276,0.116393 -0.350276,0.280563 0,0.184108 -0.09521,0.244129 -0.277024,0.174588 -0.152361,-0.05829 -0.309984,-0.105973 -0.350266,-0.105973 -0.04032,0 -0.07322,-0.10703 -0.07322,-0.237846 0,-0.294806 -1.976155,-0.57384 -2.070292,-0.292326 -0.09214,0.275571 -0.907008,0.219683 -0.907008,-0.06221 0,-0.364964 -0.493305,-0.481333 -0.67423,-0.159045 -0.180756,0.321996 -0.726846,0.194266 -0.726846,-0.170009 0,-0.316822 -1.747588,-0.870324 -2.024512,-0.641213 -0.289714,0.239696 -0.79364,0.01128 -0.736961,-0.334048 0.03596,-0.218985 -0.0962,-0.285666 -0.566094,-0.285666 -0.470708,0 -0.61334,-0.07223 -0.614558,-0.311235 -0.002,-0.454441 -1.474469,-1.575118 -1.759427,-1.339365 -0.264699,0.219 -0.515736,-0.08232 -0.515736,-0.619058 0,-0.230689 -0.118935,-0.351383 -0.350485,-0.355674 -0.503361,-0.0093 -0.826888,-0.251448 -0.717097,-0.536658 0.12377,-0.321539 -0.956742,-1.847228 -1.233299,-1.741432 -0.354675,0.135675 -0.671416,-0.373878 -0.420083,-0.67578 0.243478,-0.292454 0.102857,-0.618708 -0.266669,-0.618708 -0.1388,0 -0.252365,-0.15713 -0.252365,-0.349179 0,-0.192048 0.09848,-0.349826 0.218918,-0.350618 0.282076,-0.0019 1.016204,-1.342874 0.900162,-1.644314 -0.04864,-0.126316 0.0525,-0.283583 0.224812,-0.349482 0.172265,-0.06589 0.340984,-0.03675 0.374926,0.06477 0.104886,0.313685 0.5121,0.203568 0.608683,-0.164598 0.101163,-0.385635 0.649789,-0.485522 0.649789,-0.118306 0,0.303885 1.391516,1.206861 1.686124,1.094158 0.292102,-0.111739 0.503065,0.211185 0.503065,0.770039 0,0.320079 0.09343,0.436472 0.350267,0.436472 0.54501,0 0.841085,0.249771 0.616223,0.519864 -0.278609,0.334662 1.345794,1.748306 1.685767,1.467036 0.289169,-0.239244 0.827225,0.125642 0.694331,0.47087 -0.111802,0.290446 0.403617,0.478277 0.681512,0.24836 0.296213,-0.245063 0.788112,-0.03281 0.788112,0.340074 0,0.225842 0.253978,0.359376 1.000085,0.525829 0.727222,0.16224 1.017918,0.169819 1.065413,0.02778 0.10022,-0.299727 0.911792,-0.240488 0.911792,0.06655 0,0.14549 0.15568,0.261883 0.350276,0.261883 0.204959,0 0.350267,-0.116393 0.350267,-0.280562 0,-0.184108 0.09521,-0.24413 0.277023,-0.17459 0.152372,0.05829 0.309994,0.105975 0.350277,0.105975 0.04032,0 0.07322,0.117847 0.07322,0.261883 0,0.384843 1.894114,0.374519 2.042572,-0.01113 0.163071,-0.423652 -0.22728,-1.090585 -0.675379,-1.153907 -0.333761,-0.04716 -0.403953,-0.162982 -0.403953,-0.666488 0,-0.49246 -0.06727,-0.609723 -0.350267,-0.611061 -0.27207,-0.0013 -0.350276,-0.118602 -0.350276,-0.525424 0,-0.705654 -0.736219,-2.06498 -1.052811,-1.943871 -0.303188,0.115978 -0.555711,-0.580504 -0.273506,-0.754369 0.269493,-0.166039 0.02843,-0.74958 -0.26353,-0.637895 -0.3019,0.115487 -0.532924,-0.591822 -0.250205,-0.766011 0.310926,-0.191557 -0.139918,-2.14616 -0.466229,-2.021334 -0.128248,0.04905 -0.233174,0.01952 -0.233174,-0.06562 0,-0.08515 -0.04785,-0.279104 -0.106303,-0.430992 -0.06975,-0.181222 -0.0099,-0.276165 0.175138,-0.276165 0.164676,0 0.281432,-0.144857 0.281432,-0.349177 0,-0.192047 -0.109781,-0.349177 -0.243964,-0.349177 -0.380731,0 -0.500805,-0.540328 -0.173137,-0.779172 0.238346,-0.173744 0.267612,-0.385804 0.165569,-1.199942 -0.0856,-0.682803 -0.201353,-0.9889 -0.374034,-0.9889 -0.137561,0 -0.250106,-0.157131 -0.250106,-0.349179 0,-0.193987 0.116755,-0.349177 0.262707,-0.349177 0.145942,0 0.262698,-0.155191 0.262698,-0.349178 0,-0.193988 -0.116756,-0.349179 -0.262698,-0.349179 -0.163467,0 -0.262707,-0.164888 -0.262707,-0.436471 0,-0.287701 0.09769,-0.436474 0.286504,-0.436474 0.24009,0 0.268464,-0.131238 0.175138,-0.810017 -0.06123,-0.445512 -0.111376,-0.916902 -0.111376,-1.047534 0,-0.130636 -0.118211,-0.237518 -0.262697,-0.237518 -0.163457,0 -0.262707,-0.164888 -0.262707,-0.436471 0,-0.271584 0.09925,-0.436473 0.262707,-0.436473 0.15039,0 0.262697,-0.157266 0.262697,-0.367857 0,-0.255256 -0.08045,-0.337095 -0.262697,-0.267362 -0.18979,0.0726 -0.262707,-0.01912 -0.262707,-0.3305 0,-0.266712 0.100142,-0.430993 0.262707,-0.430993 0.204325,0 0.262697,-0.232785 0.262697,-1.047535 0,-0.814748 -0.05835,-1.047534 -0.262697,-1.047534 -0.163457,0 -0.262707,-0.164888 -0.262707,-0.436472 0,-0.271583 0.09925,-0.436472 0.262707,-0.436472 0.145942,0 0.262697,-0.155191 0.262697,-0.349178 0,-0.193988 -0.116755,-0.349179 -0.262697,-0.349179 -0.163457,0 -0.262707,-0.164888 -0.262707,-0.436472 0,-0.258827 0.10033,-0.436473 0.2465,-0.436473 0.174761,0 0.263945,-0.279509 0.306487,-0.960476 0.03299,-0.528264 -0.005,-0.960371 -0.08421,-0.96024 -0.07926,1.31e-4 -0.117658,-0.137111 -0.0852,-0.304979 0.03249,-0.16827 0.215073,-0.305357 0.406895,-0.305531 0.251383,-2.26e-4 0.337179,-0.104673 0.309192,-0.376389 -0.04002,-0.388369 0.453954,-0.725774 0.637712,-0.435588 0.143603,0.226798 1.751857,0.32778 1.824021,0.114532 0.03537,-0.104497 0.178497,-0.07789 0.352842,0.06558 0.207743,0.170961 0.240981,0.304299 0.113893,0.456956 -0.21016,0.252431 0.224951,0.708878 0.508938,0.533907 0.0957,-0.05897 0.259557,0.05211 0.364107,0.246853 0.153065,0.285105 0.137065,0.354068 -0.08213,0.354068 -0.189473,0 -0.247638,0.119391 -0.191385,0.392826 0.04448,0.216054 0.128326,0.687444 0.186402,1.047534 0.06589,0.408266 0.201491,0.654708 0.360362,0.654708 0.140127,0 0.254772,0.15713 0.254772,0.349178 0,0.193988 -0.116756,0.349179 -0.262707,0.349179 -0.145942,0 -0.262698,0.15519 -0.262698,0.349178 0,0.20066 0.116756,0.349177 0.274497,0.349177 0.180498,0 0.242308,0.10464 0.180498,0.305531 -0.05171,0.168042 0.04943,0.492306 0.224693,0.720589 l 0.318702,0.415059 0.864854,-0.589648 c 0.548805,-0.374167 0.843245,-0.693273 0.805716,-0.873209 -0.07391,-0.354168 0.492048,-0.596143 0.681086,-0.291224 0.177496,0.28629 0.585412,-0.07632 0.588453,-0.523098 0.002,-0.213087 0.152779,-0.301512 0.527436,-0.308177 0.693549,-0.01235 2.042969,-0.786884 1.92345,-1.104015 -0.125663,-0.333415 0.463078,-0.744203 0.739191,-0.515767 0.297332,0.245995 0.624861,-0.004 0.521491,-0.398173 -0.09739,-0.371301 0.150944,-0.591532 0.667066,-0.591532 0.237524,0 0.501113,-0.277957 0.827801,-0.872944 0.561308,-1.022292 0.581736,-1.134829 0.206048,-1.134829 -0.184689,0 -0.244895,-0.09494 -0.175138,-0.276163 0.05846,-0.15189 0.106304,-0.348301 0.106304,-0.436472 0,-0.08816 0.118221,-0.160309 0.262707,-0.160309 0.145942,0 0.262697,-0.155191 0.262697,-0.34918 0,-0.192047 -0.07877,-0.349177 -0.175138,-0.349177 -0.289199,0 -0.197192,-0.668232 0.100398,-0.729203 0.340538,-0.06976 0.984016,-1.849031 0.702871,-1.943497 -0.125453,-0.04215 -0.106045,-0.165662 0.05696,-0.362479 0.177833,-0.214731 0.282967,-0.240928 0.37448,-0.09333 0.176099,0.284046 0.516657,0.03779 0.516657,-0.373584 0,-0.336848 0.60581,-0.49944 0.729729,-0.195851 0.10025,0.245611 1.703906,0.697212 1.770344,0.498539 0.142316,-0.425619 0.492107,0.115552 0.385991,0.597182 -0.09541,0.432923 -0.05846,0.507145 0.252454,0.507145 0.247421,0 0.364186,0.111946 0.364186,0.349179 0,0.192048 -0.07877,0.349178 -0.175138,0.349178 -0.09729,0 -0.175138,0.465571 -0.175138,1.047534 0,0.581963 0.07787,1.047535 0.175138,1.047535 0.0963,0 0.175138,0.15713 0.175138,0.349177 0,0.192047 -0.109791,0.349177 -0.243973,0.349177 -0.134182,0 -0.291794,0.124274 -0.350266,0.276165 -0.151222,0.392863 -0.139057,0.422192 0.175138,0.422192 0.184678,0 0.244894,0.09494 0.175128,0.276163 -0.05845,0.151889 -0.106303,0.30902 -0.106303,0.349179 0,0.04015 -0.107711,0.07301 -0.239347,0.07301 -0.325885,0 -1.040149,1.733085 -0.822162,1.994914 0.222791,0.267614 -0.0647,0.707748 -0.463585,0.70969 -0.190544,9.26e-4 -0.320832,0.13869 -0.331671,0.350703 -0.03804,0.744746 -0.07242,0.808309 -0.384059,0.709726 -0.413118,-0.130712 -1.705275,1.15345 -1.554578,1.544952 0.132221,0.343476 -0.44687,0.691877 -0.71151,0.428067 -0.204403,-0.20377 -0.471926,0.101299 -0.479802,0.547152 -0.003,0.173564 -0.181825,0.261884 -0.530032,0.261884 -0.713828,0 -2.040392,0.721339 -1.976412,1.074694 0.06401,0.353495 -0.570839,0.7732 -0.687257,0.454355 -0.05866,-0.160656 -0.169214,-0.168811 -0.426631,-0.03147 -0.268533,0.143265 -0.302534,0.23932 -0.149697,0.422901 0.152867,0.18362 0.118559,0.27978 -0.151143,0.423672 -0.191891,0.102374 -0.456223,0.145079 -0.587394,0.0949 -0.13119,-0.05018 -0.565241,0.18756 -0.964587,0.528313 -0.553957,0.472693 -0.718377,0.732431 -0.693638,1.095753 0.02724,0.400176 -0.03745,0.4762 -0.4054,0.4762 -0.345204,0 -0.441858,0.09234 -0.456828,0.436472 -0.03705,0.851358 -0.06123,0.898791 -0.403656,0.790459 -0.278915,-0.08824 -0.396324,0.05718 -0.700533,0.867729 -0.410898,1.094792 -0.442145,1.309826 -0.190335,1.309826 0.336465,0 0.181102,0.72949 -0.175128,0.822358 -0.405975,0.105834 -0.477405,0.574353 -0.08758,0.574353 0.163458,0 0.262698,0.16489 0.262698,0.436474 0,0.271584 -0.09924,0.436473 -0.262698,0.436473 -0.315046,0 -0.316285,0.025 -0.06341,1.280299 0.151382,0.75144 0.27322,0.989358 0.506662,0.989358 0.371338,0 0.614886,0.531972 0.32524,0.710425 -0.270831,0.166863 -0.06598,0.686286 0.270633,0.686286 0.14412,0 0.346393,0.15713 0.449497,0.349179 0.127098,0.236741 0.12908,0.349178 0.0059,0.349178 -0.299829,0 -0.207733,0.357762 0.300324,1.166696 0.339528,0.540593 0.572722,0.743801 0.790402,0.688762 0.359955,-0.09101 0.767811,0.498345 0.471301,0.68103 -0.254059,0.156523 0.168719,0.648996 0.461117,0.537143 0.286178,-0.109475 0.665413,0.342311 0.504798,0.601375 -0.07024,0.113288 0.200065,0.526755 0.629589,0.963044 0.577407,0.586497 0.806459,0.720016 0.983679,0.573399 0.313193,-0.259119 0.798287,0.143418 0.667581,0.553961 -0.103946,0.326463 0.354894,0.62227 0.52918,0.341154 0.158187,-0.255157 0.794749,0.224024 0.698631,0.525911 -0.121006,0.380065 1.588301,1.328731 1.911828,1.061065 0.333028,-0.275523 0.834596,-0.03937 0.714898,0.336588 -0.06687,0.209988 0.01446,0.336089 0.257486,0.399452 0.195349,0.05092 0.355181,0.01592 0.355181,-0.07779 0,-0.09371 0.177327,-0.14528 0.394056,-0.114597 0.244855,0.03466 0.377056,0.160669 0.349156,0.332794 -0.0524,0.323369 0.552184,0.634345 1.539143,0.791675 0.670019,0.106805 0.69865,0.0913 0.8043,-0.43532 0.06023,-0.300336 0.217918,-0.546065 0.350365,-0.546065 0.132449,0 0.240813,-0.15713 0.240813,-0.349177 0,-0.193988 -0.116756,-0.349179 -0.262707,-0.349179 -0.163458,0 -0.262698,-0.164888 -0.262698,-0.436472 0,-0.2877 0.09769,-0.436473 0.286505,-0.436473 0.240089,0 0.268463,-0.131239 0.175138,-0.810018 -0.06123,-0.44551 -0.111376,-0.916901 -0.111376,-1.047534 0,-0.130634 -0.118212,-0.237516 -0.262698,-0.237516 -0.144485,0 -0.262707,-0.148726 -0.262707,-0.330499 0,-0.181775 0.118222,-0.37572 0.262707,-0.430994 0.34137,-0.130585 0.34137,-0.635219 0,-0.635219 -0.163457,0 -0.262707,-0.164889 -0.262707,-0.436473 0,-0.271583 0.09925,-0.436472 0.262707,-0.436472 0.193873,0 0.262698,-0.202101 0.262698,-0.771372 0,-0.424254 0.04785,-0.895644 0.106303,-1.047533 0.06975,-0.181222 0.0099,-0.276164 -0.175128,-0.276164 -0.186531,0 -0.281442,-0.153497 -0.281442,-0.455152 0,-0.321037 0.07312,-0.427173 0.248203,-0.360201 0.356885,0.13652 0.511189,-0.412669 0.183144,-0.651794 -0.31256,-0.227835 -0.177972,-0.80251 0.187948,-0.80251 0.316126,0 0.722348,-1.915884 0.44274,-2.088151 -0.248689,-0.153218 -0.05182,-0.705274 0.251472,-0.705274 0.332741,0 0.476335,-0.52 0.175396,-0.635123 -0.314472,-0.120299 -0.03428,-0.761588 0.332721,-0.761588 0.329323,0 0.990357,-1.770076 0.765267,-2.049198 -0.234998,-0.291427 -0.01852,-0.804005 0.289813,-0.68607 0.302811,0.115834 0.540988,-0.418496 0.262915,-0.589815 -0.287436,-0.177092 -0.02893,-0.870079 0.280372,-0.751741 0.304852,0.116617 1.172033,-1.679824 0.935401,-1.937767 -0.275864,-0.300714 -0.15893,-0.625866 0.285683,-0.79438 0.446058,-0.169062 0.564893,-0.424884 0.279142,-0.600933 -0.279212,-0.172028 5.45e-4,-0.813938 0.311808,-0.715453 0.36691,0.116089 1.217179,-1.803969 0.88853,-2.006453 -0.292399,-0.180149 -0.03527,-0.873322 0.279361,-0.752981 0.321388,0.122946 0.558654,-0.45113 0.261995,-0.633908 -0.299375,-0.184445 -0.0645,-0.888236 0.255584,-0.765797 0.357409,0.136725 0.903549,-1.770465 0.608485,-2.124896 -0.258378,-0.310351 -0.100626,-0.779853 0.262024,-0.779853 0.151451,0 0.268206,-0.15201 0.268206,-0.349177 0,-0.192048 -0.07877,-0.34918 -0.175138,-0.34918 -0.0963,0 -0.175138,-0.204816 -0.175138,-0.455151 0,-0.316801 0.07401,-0.426848 0.243397,-0.362044 0.163964,0.06272 0.278272,-0.08073 0.350267,-0.439618 0.16323,-0.813614 0.127426,-1.711199 -0.06826,-1.711199 -0.0963,0 -0.175138,-0.196413 -0.175138,-0.436472 0,-0.271584 0.09925,-0.436473 0.262707,-0.436473 0.144486,0 0.262698,-0.117848 0.262698,-0.261884 0,-0.144036 -0.118212,-0.261883 -0.262698,-0.261883 -0.163458,0 -0.262707,-0.164889 -0.262707,-0.436473 0,-0.271583 0.09925,-0.436472 0.262707,-0.436472 0.206574,0 0.262698,-0.242486 0.262698,-1.134829 0,-0.892344 -0.05618,-1.134828 -0.262698,-1.134828 -0.145941,0 -0.262707,-0.15519 -0.262707,-0.349179 0,-0.20432 0.116766,-0.349177 0.281442,-0.349177 0.184688,0 0.244894,-0.09495 0.175138,-0.276164 -0.05845,-0.151889 -0.106303,-0.309019 -0.106303,-0.349178 0,-0.04015 -0.118222,-0.07301 -0.262708,-0.07301 -0.322021,0 -0.360401,-0.808675 -0.04379,-0.922658 0.156928,-0.05649 0.07579,-0.35847 -0.286406,-1.066347 -0.396037,-0.773946 -0.573652,-0.965917 -0.821231,-0.887586 -0.368991,0.11675 -0.818547,-0.51384 -0.504332,-0.707432 0.272406,-0.16783 -0.179478,-0.644881 -0.49612,-0.523753 -0.355597,0.13603 -0.718653,-0.205127 -0.61971,-0.582321 0.112376,-0.42836 -1.077213,-1.318628 -1.773039,-1.326918 -0.388588,-0.0046 -0.546062,-0.09911 -0.592546,-0.355483 -0.09273,-0.51149 -0.342727,-0.717638 -0.581549,-0.479562 -0.265035,0.264209 -0.871024,-0.04531 -0.742479,-0.379244 0.139095,-0.361361 -1.450969,-1.413038 -1.755494,-1.16109 -0.290903,0.240672 -0.682333,-0.166376 -0.533013,-0.554282 0.1077,-0.279793 -0.358757,-0.554797 -0.643488,-0.379371 -0.258497,0.159261 -0.70944,-0.288455 -0.521472,-0.51775 0.205078,-0.250173 -1.110866,-1.758546 -1.386205,-1.588908 -0.106581,0.06566 -0.300028,-0.02547 -0.42989,-0.202524 -0.160297,-0.218534 -0.176486,-0.358652 -0.05042,-0.436334 0.259081,-0.159623 0.0089,-0.7295 -0.273418,-0.621675 -0.126504,0.04839 -0.319158,-0.05432 -0.428116,-0.228243 -0.153383,-0.244839 -0.144258,-0.336834 0.04042,-0.407486 0.193377,-0.07397 0.169996,-0.276773 -0.123542,-1.071131 -0.243854,-0.659916 -0.438817,-0.950527 -0.597063,-0.889991 -0.129229,0.04944 -0.234968,0.02022 -0.234968,-0.06494 0,-0.08515 -0.04785,-0.279105 -0.106312,-0.430994 -0.06975,-0.18122 -0.0099,-0.276162 0.175137,-0.276162 0.164686,0 0.281442,-0.144859 0.281442,-0.349178 0,-0.201221 -0.116756,-0.349179 -0.275547,-0.349179 -0.168153,0 -0.252532,-0.119078 -0.21652,-0.30553 0.03249,-0.168042 0.141572,-0.305531 0.242457,-0.305531 0.288674,0 1.340167,-1.278655 1.21608,-1.478805 -0.06538,-0.105438 0.07391,-0.179791 0.336704,-0.179791 0.246499,0 0.448178,0.07856 0.448178,0.174589 0,0.09602 0.118213,0.17459 0.262698,0.17459 0.144485,0 0.262707,-0.07856 0.262707,-0.17459 0,-0.09602 0.157623,-0.174589 0.350267,-0.174589 0.226913,0 0.350267,0.116392 0.350267,0.3305 0,0.181774 0.118904,0.375981 0.264222,0.431572 0.145318,0.05559 0.35739,0.304932 0.471272,0.554093 0.13978,0.305829 0.308013,0.426698 0.517797,0.37201 0.362561,-0.09451 0.652999,0.552712 0.335733,0.748179 -0.267335,0.164713 -0.02962,0.750032 0.259695,0.639365 0.328303,-0.125588 0.604909,0.284444 0.489264,0.725275 -0.138285,0.527156 0.899884,1.837767 1.344347,1.697139 0.355805,-0.112575 0.608476,0.178016 0.608476,0.699778 0,0.255253 0.122531,0.35382 0.45552,0.366438 0.623307,0.02362 0.840254,0.187241 0.74248,0.559983 -0.112445,0.428644 1.586161,1.386038 1.939886,1.093388 0.285741,-0.236405 0.802655,-0.06347 0.802655,0.268526 0,0.272701 0.638743,0.337614 0.729729,0.07416 0.0321,-0.09298 0.334217,-0.18742 0.671347,-0.209876 0.33714,-0.02246 0.670871,-0.123157 0.741648,-0.223779 0.193288,-0.274829 0.15997,-1.979541 -0.04111,-2.103428 -0.273943,-0.168777 -0.205187,-0.785651 0.08758,-0.785651 0.145942,0 0.262698,-0.155189 0.262698,-0.349177 0,-0.193988 -0.116756,-0.349178 -0.262698,-0.349178 -0.163458,0 -0.262708,-0.164889 -0.262708,-0.436472 0,-0.288133 0.09759,-0.436474 0.287209,-0.436474 0.244835,0 0.271911,-0.147663 0.183559,-1.001087 -0.05696,-0.550598 -0.186245,-1.028535 -0.287208,-1.062082 -0.234314,-0.07786 -0.242011,-0.904844 -0.0079,-0.904844 0.0963,0 0.175138,-0.117847 0.175138,-0.261884 0,-0.144035 -0.07887,-0.261883 -0.175138,-0.261883 -0.0963,0 -0.175129,-0.196413 -0.175129,-0.436472 0,-0.240061 0.07886,-0.436473 0.175129,-0.436473 0.09729,0 0.175138,-0.465571 0.175138,-1.047535 0,-0.581962 -0.07787,-1.047534 -0.175138,-1.047534 -0.0963,0 -0.175129,-0.196412 -0.175129,-0.436472 0,-0.240058 0.07886,-0.436471 0.175129,-0.436471 0.0963,0 0.175138,-0.157131 0.175138,-0.349179 0,-0.192048 -0.07887,-0.349178 -0.175138,-0.349178 -0.0963,0 -0.175129,-0.196413 -0.175129,-0.436473 0,-0.271583 0.09924,-0.436472 0.262698,-0.436472 0.204324,0 0.262707,-0.232786 0.262707,-1.047534 0,-0.581964 -0.07787,-1.047534 -0.175138,-1.047534 -0.0963,0 -0.175138,-0.1178475 -0.175138,-0.2618837 0,-0.1660632 0.167677,-0.2618835 0.458264,-0.2618835 0.371963,0 0.441026,-0.065727 0.366712,-0.3490048 -0.104402,-0.397991 0.120282,-0.5899863 0.751238,-0.6419411 0.846921,-0.069736 1.576214,-0.2725746 1.576214,-0.4383839 0,-0.092165 0.137778,-0.1411237 0.30618,-0.1087958 0.168787,0.032404 0.306309,0.2144064 0.306477,0.4056273 1.98e-4,0.2100619 0.118538,0.3476468 0.300087,0.3488735 0.432396,0.00296 0.778947,0.3891646 0.552084,0.6153207 -0.265234,0.2644139 0.002,1.7521123 0.34986,1.9460563 0.359521,0.20057 0.377967,0.841083 0.02427,0.841083 -0.145951,0 -0.262707,0.15519 -0.262707,0.349178 0,0.193988 0.116756,0.349178 0.262707,0.349178 0.145942,0 0.262698,0.15519 0.262698,0.349179 0,0.193987 -0.116756,0.349177 -0.262698,0.349177 -0.206573,0 -0.262707,0.242485 -0.262707,1.134829 0,0.892343 0.05617,1.134828 0.262707,1.134828 0.145942,0 0.262698,0.155191 0.262698,0.349177 0,0.193989 -0.116756,0.34918 -0.262698,0.34918 -0.145951,0 -0.262707,0.15519 -0.262707,0.349177 0,0.193989 0.116756,0.349178 0.262707,0.349178 0.163458,0 0.262698,0.16489 0.262698,0.436473 0,0.240059 -0.07886,0.436472 -0.175129,0.436472 -0.09729,0 -0.175138,0.465571 -0.175138,1.047534 0,0.581964 0.07787,1.047534 0.175138,1.047534 0.0963,0 0.175129,0.196413 0.175129,0.436473 0,0.24006 -0.07886,0.436472 -0.175129,0.436472 -0.0963,0 -0.175138,0.157131 -0.175138,0.349179 0,0.192048 0.07886,0.349178 0.175138,0.349178 0.0963,0 0.175129,0.15713 0.175129,0.349177 0,0.192048 -0.07886,0.349179 -0.175129,0.349179 -0.09878,0 -0.175138,0.494669 -0.175138,1.134829 0,0.640159 0.07639,1.134828 0.175138,1.134828 0.0963,0 0.175129,0.15713 0.175129,0.349178 0,0.192047 -0.07886,0.349178 -0.175129,0.349178 -0.0963,0 -0.175138,0.15713 -0.175138,0.349179 0,0.193987 0.116756,0.349177 0.262698,0.349177 0.163467,0 0.262707,0.164889 0.262707,0.436473 0,0.271584 -0.09924,0.436472 -0.262707,0.436472 -0.204325,0 -0.262698,0.232785 -0.262698,1.047534 0,0.814749 0.05835,1.047535 0.262698,1.047535 0.163467,0 0.262707,0.164889 0.262707,0.436473 0,0.271583 -0.09924,0.436471 -0.262707,0.436471 -0.144486,0 -0.262698,0.117849 -0.262698,0.261883 0,0.144037 0.118212,0.261884 0.262698,0.261884 0.163467,0 0.262707,0.164889 0.262707,0.436473 0,0.271584 -0.09924,0.436473 -0.262707,0.436473 -0.204325,0 -0.262698,0.232785 -0.262698,1.047533 0,0.81475 0.05835,1.047534 0.262698,1.047534 0.163467,0 0.262707,0.16489 0.262707,0.436474 0,0.271584 -0.09924,0.436473 -0.262707,0.436473 -0.145942,0 -0.262698,0.15519 -0.262698,0.349177 0,0.193988 0.116756,0.349178 0.262698,0.349178 0.163467,0 0.262707,0.164889 0.262707,0.436473 0,0.271584 -0.09924,0.436472 -0.262707,0.436472 -0.204325,0 -0.262698,0.232785 -0.262698,1.047534 0,0.81475 0.05835,1.047534 0.262698,1.047534 0.163467,0 0.262707,0.164889 0.262707,0.436473 0,0.271584 -0.09924,0.436472 -0.262707,0.436472 -0.144486,0 -0.262698,0.117848 -0.262698,0.261884 0,0.144036 0.118212,0.261883 0.262698,0.261883 0.163467,0 0.262707,0.16489 0.262707,0.436474 0,0.240059 -0.07877,0.436472 -0.175138,0.436472 -0.298483,0 -0.206614,1.221038 0.100716,1.338605 0.475889,0.182044 1.650636,-0.265312 1.650636,-0.628578 0,-0.383302 0.529417,-0.636865 0.71265,-0.341322 0.180369,0.290945 0.747612,0.03685 0.625556,-0.28022 -0.131647,-0.341994 0.462484,-0.667823 0.730511,-0.400625 0.255446,0.254645 1.870843,-0.714203 1.874053,-1.123977 0.003,-0.406178 0.222504,-0.571657 0.757647,-0.571657 0.349306,0 0.466061,-0.08747 0.466061,-0.349178 0,-0.513936 0.220058,-0.764076 0.58784,-0.668199 0.403022,0.105062 1.475291,-1.259582 1.335272,-1.699358 -0.147249,-0.462498 0.09333,-0.885114 0.441215,-0.775046 0.358112,0.113307 0.65177,-0.425306 0.337457,-0.618952 -0.283473,-0.174653 -0.02952,-0.870283 0.27518,-0.753729 0.332959,0.127369 0.916222,-1.79967 0.630826,-2.084178 -0.281442,-0.280564 -0.235344,-0.820572 0.07005,-0.820572 0.145942,0 0.262697,-0.15519 0.262697,-0.349177 0,-0.192048 -0.07886,-0.349178 -0.175138,-0.349178 -0.0963,0 -0.175128,-0.196413 -0.175128,-0.436473 0,-0.254911 0.100626,-0.436473 0.241912,-0.436473 0.288555,0 0.695094,-1.452798 0.541514,-1.93517 -0.140662,-0.441792 0.05716,-0.755473 0.332632,-0.527539 0.25916,0.214416 0.672634,-0.01708 0.600748,-0.336345 -0.02913,-0.129533 0.08491,-0.265584 0.253454,-0.302333 0.190425,-0.04151 0.306487,0.0372 0.306487,0.207868 0,0.269764 0.253514,0.318162 1.838921,0.351072 0.48756,0.01012 0.521344,0.05253 0.469004,0.588863 -0.04666,0.478305 -9.91e-4,0.568614 0.262698,0.523767 0.2187,-0.03713 0.336713,0.06942 0.375073,0.338636 0.03081,0.216054 -0.02833,0.392825 -0.131348,0.392825 -0.309152,0 -0.238218,1.91197 0.0754,2.031932 0.382078,0.146161 0.321774,0.705367 -0.08758,0.81208 -0.4054,0.105682 -0.478683,0.647769 -0.08758,0.647769 0.37755,0 0.324627,0.540314 -0.06282,0.641318 -0.392926,0.102431 -0.887838,1.944056 -0.574346,2.1372 0.275358,0.169651 0.03992,0.882909 -0.254297,0.770362 -0.305318,-0.116799 -0.547873,0.455836 -0.266511,0.629186 0.281421,0.173385 0.05092,0.710105 -0.305635,0.711771 -0.356161,0.0017 -1.157816,1.326752 -1.161046,1.919134 -0.002,0.348546 -0.09055,0.436473 -0.440213,0.436473 -0.318316,0 -0.440095,0.09531 -0.446109,0.349179 -0.01208,0.509385 -0.3519,1.052164 -0.50457,0.805916 -0.180041,-0.290415 -1.722315,1.005182 -1.593848,1.338925 0.150964,0.392193 -0.246103,0.788167 -0.543566,0.542064 -0.337079,-0.278876 -0.854816,0.137293 -0.580587,0.466684 0.140712,0.169026 0.10361,0.27189 -0.14615,0.405138 -0.195894,0.104511 -0.400356,0.114099 -0.492929,0.02311 -0.259725,-0.25528 -1.858627,0.886128 -1.761259,1.257309 0.08362,0.318626 2.17e-4,0.36076 -0.761245,0.384733 -0.264044,0.0083 -0.439667,0.117732 -0.442462,0.275668 -0.0079,0.45762 -0.273961,0.71686 -0.622197,0.606681 -0.471946,-0.149326 -1.950109,0.921058 -1.82305,1.320133 0.128673,0.404152 -0.406212,0.854188 -0.614985,0.517433 -0.124424,-0.200688 -0.194309,-0.201482 -0.431912,-0.0049 -0.194258,0.160718 -0.226774,0.291051 -0.103311,0.414132 0.257169,0.256369 -0.318425,0.873875 -0.59854,0.642122 -0.312708,-0.258718 -1.58083,1.111316 -1.58083,1.707875 0,0.384031 -0.07252,0.463014 -0.394056,0.429081 -0.216729,-0.02287 -0.405717,0.05569 -0.419983,0.174589 -0.01426,0.118898 -0.042,0.334025 -0.06163,0.478061 -0.01962,0.144036 -0.04735,0.368495 -0.06162,0.4988 -0.01486,0.136006 -0.138888,0.193704 -0.291131,0.135464 -0.181855,-0.06957 -0.428503,0.15777 -0.784783,0.723322 -0.570492,0.905603 -0.638485,1.194486 -0.30731,1.305604 0.169452,0.05685 0.163112,0.140841 -0.02803,0.371672 -0.135837,0.164021 -0.346046,0.260323 -0.467132,0.214005 -0.279619,-0.106966 -0.493048,0.418774 -0.263073,0.648032 0.231766,0.231049 -0.09382,0.831828 -0.389479,0.718717 -0.134084,-0.05129 -0.377343,0.231525 -0.61031,0.709528 -0.420537,0.862895 -0.490779,1.309239 -0.206057,1.309239 0.120658,0 0.11617,0.121311 -0.01347,0.362719 -0.107096,0.199496 -0.300375,0.322304 -0.429504,0.272907 -0.282234,-0.107965 -0.51734,0.403544 -0.289764,0.630415 0.259785,0.258972 0.02179,0.850834 -0.302197,0.751634 -0.386249,-0.118253 -1.25126,1.780068 -0.907611,1.991799 0.307854,0.189668 0.06916,0.890751 -0.26033,0.7647 -0.321388,-0.122945 -0.558654,0.451132 -0.261995,0.633909 0.29337,0.180744 0.06529,0.888533 -0.247767,0.768789 -0.166925,-0.06386 -0.293241,0.172697 -0.42887,0.803153 -0.23785,1.105622 -0.241456,1.400248 -0.01714,1.400248 0.0963,0 0.175138,0.15713 0.175138,0.349178 0,0.193988 -0.116755,0.349178 -0.262707,0.349178 -0.145942,0 -0.262698,0.15519 -0.262698,0.349178 0,0.192048 0.07877,0.349178 0.175129,0.349178 0.0963,0 0.175138,0.196412 0.175138,0.436473 0,0.253044 -0.100775,0.436472 -0.239792,0.436472 -0.141028,0 -0.284493,0.26964 -0.348335,0.65471 -0.175157,1.056406 -0.135103,1.440359 0.150291,1.440359 0.163459,0 0.262698,0.164889 0.262698,0.436472 0,0.271584 -0.09924,0.436472 -0.262698,0.436472 -0.145942,0 -0.262707,0.155191 -0.262707,0.349178 0,0.193988 0.116765,0.349179 0.262707,0.349179 0.163459,0 0.262698,0.164888 0.262698,0.436472 0,0.24006 -0.07886,0.436472 -0.175129,0.436472 -0.0963,0 -0.175138,0.225875 -0.175138,0.501943 0,0.84278 0.206911,1.593126 0.439303,1.593126 0.342172,0 0.445582,0.675865 0.130327,0.851745 -0.335415,0.187121 -0.162041,0.753664 0.189494,0.619192 0.162764,-0.06227 0.276171,0.05778 0.332612,0.352122 0.05846,0.304614 0.0089,0.446598 -0.156116,0.446598 -0.174663,0 -0.210051,0.133243 -0.127535,0.48012 0.238534,1.002744 0.588454,1.654042 0.83749,1.558779 0.301572,-0.115366 0.531487,0.600141 0.248807,0.774307 -0.278489,0.171578 -0.01684,0.734654 0.287316,0.618303 0.310223,-0.11867 0.572791,0.572194 0.284891,0.749575 -0.295708,0.182182 0.599241,2.126289 0.921977,2.002829 0.293498,-0.112273 0.545585,0.439376 0.308696,0.675528 -0.242101,0.241344 -0.03447,0.647886 0.330839,0.647886 0.377579,0 0.62181,0.531061 0.327608,0.712324 -0.33172,0.204374 0.546933,2.098251 0.920412,1.983906 0.324022,-0.0992 0.561982,0.492663 0.302198,0.751633 -0.223496,0.222799 0.005,0.739299 0.280598,0.633923 0.291845,-0.111643 0.505175,0.437901 0.276578,0.71248 -0.244587,0.293786 0.479812,1.963599 0.89928,2.072951 0.331186,0.08633 0.457283,0.640111 0.145754,0.640111 -0.0963,0 -0.175128,0.147968 -0.175128,0.328816 0,0.288728 0.395681,0.542373 0.96324,0.617478 0.0963,0.01275 0.267612,0.08094 0.380652,0.151547 0.279748,0.174744 1.497126,-1.317501 1.361745,-1.669208 -0.11842,-0.307625 0.20372,-0.56346 0.709488,-0.56346 0.233521,0 0.350277,-0.116395 0.350277,-0.34918 0,-0.513784 0.251027,-0.812872 0.591773,-0.705061 0.355953,0.112624 1.700201,-1.170256 1.524013,-1.45444 -0.177922,-0.286994 0.282552,-0.910415 0.524562,-0.710188 0.135896,0.112432 0.282869,0.07129 0.445058,-0.124562 0.197013,-0.237916 0.199352,-0.306785 0.01258,-0.369438 -0.345482,-0.115864 0.257991,-0.719322 0.63363,-0.633612 0.392431,0.08954 1.553319,-1.45405 1.290542,-1.716001 -0.28474,-0.283862 0.127386,-0.805522 0.54946,-0.695492 0.306883,0.07999 0.337446,0.02741 0.246776,-0.424539 -0.11633,-0.579821 0.0856,-1.041646 0.376926,-0.862143 0.116132,0.07154 0.382742,-0.268642 0.673141,-0.858917 0.384049,-0.780612 0.433654,-1.006466 0.24639,-1.121837 -0.301008,-0.185456 -0.09263,-0.90251 0.226813,-0.780327 0.130517,0.04993 0.270336,-0.06277 0.321953,-0.259517 0.05389,-0.205346 -0.0079,-0.385901 -0.152125,-0.440867 -0.347106,-0.132781 -0.30071,-0.501255 0.106918,-0.849191 0.254366,-0.217115 0.350276,-0.515027 0.350276,-1.088044 0,-0.573017 -0.0959,-0.870928 -0.350276,-1.088043 -0.411105,-0.350903 -0.465258,-0.919731 -0.08758,-0.919731 0.296698,0 0.328025,-0.150642 0.10447,-0.502487 -0.08412,-0.132332 -0.228973,-0.193718 -0.321982,-0.136416 -0.260458,0.160474 -0.586621,-0.671996 -0.354101,-0.903791 0.276261,-0.275397 -1.143471,-1.661946 -1.567109,-1.530477 -0.419864,0.130299 -0.826591,-0.145012 -0.700008,-0.473835 0.120253,-0.312406 -0.379027,-0.560544 -0.628161,-0.312188 -0.240069,0.239322 -0.793729,-0.144197 -0.70623,-0.48921 0.07877,-0.310502 -1.394993,-1.335306 -1.673502,-1.163716 -0.300771,0.185311 -0.735703,-0.102477 -0.634631,-0.419933 0.116002,-0.364354 -0.340489,-0.823978 -0.524137,-0.52774 -0.166925,0.269246 -0.657348,-0.156664 -0.537857,-0.467096 0.11936,-0.310078 -0.974585,-1.802137 -1.254609,-1.711201 -0.118936,0.03862 -0.299028,-0.08397 -0.400219,-0.272451 -0.12589,-0.234501 -0.126732,-0.342676 -0.003,-0.342676 0.334336,0 0.186254,-0.65634 -0.168966,-0.748943 -0.379166,-0.09885 -0.490473,-0.647748 -0.131359,-0.647803 0.24214,-3.7e-5 0.316315,-1.683818 0.08946,-2.031604 -0.154889,-0.237517 0.257427,-0.619965 0.592614,-0.549677 0.145328,0.03048 0.239049,-0.108246 0.241725,-0.357772 0.002,-0.224152 0.140324,-0.483392 0.306487,-0.576091 0.229517,-0.128045 0.302117,-0.102732 0.302117,0.105343 0,0.202137 0.110415,0.246258 0.421518,0.168418 0.231837,-0.058 0.596509,-0.01211 0.810384,0.101994 0.309181,0.164955 0.418675,0.159353 0.534421,-0.02735 0.200064,-0.322696 0.586055,0.0648 0.592941,0.595268 0.004,0.295279 0.09491,0.376837 0.377551,0.338155 0.2112,-0.02891 0.417357,0.06558 0.476126,0.218235 0.05696,0.14807 0.02724,0.269216 -0.06599,0.269216 -0.321595,0 -0.168531,0.793525 0.279986,1.451515 0.323794,0.475018 0.537431,0.631841 0.763383,0.560352 0.357142,-0.113001 0.803756,0.320098 0.625903,0.606968 -0.0647,0.104439 -0.02169,0.305262 0.09571,0.446275 0.162072,0.194674 0.271089,0.208698 0.452915,0.05827 0.304109,-0.251597 0.790073,0.09979 0.648105,0.468609 -0.0648,0.168223 0.152153,0.361497 0.667165,0.594461 0.985294,0.445701 1.760031,0.467056 1.717193,0.04733 -0.07223,-0.708327 0.02308,-1.091181 0.271862,-1.091181 0.145952,0 0.262707,-0.15519 0.262707,-0.349178 0,-0.193988 -0.116755,-0.349177 -0.262707,-0.349177 -0.379008,0 -0.335734,-0.696779 0.04379,-0.704983 0.327054,-0.0071 1.269738,-1.227617 1.269738,-1.643996 0,-0.346937 0.322536,-0.510146 0.582727,-0.294875 0.265799,0.219899 0.736397,-0.03262 0.567747,-0.304641 -0.07342,-0.118412 0.02031,-0.194109 0.240269,-0.194109 0.19833,0 0.360599,0.09821 0.360609,0.218237 0,0.261421 1.245682,1.286957 1.472596,1.212349 0.159197,-0.05234 0.446147,0.28698 0.451199,0.533541 9.91e-4,0.07202 -0.115536,0.130943 -0.260022,0.130943 -0.391104,0 -0.317831,0.542085 0.08758,0.647767 0.405212,0.105636 0.480426,0.748944 0.08758,0.748944 -0.204324,0 -0.262697,0.232785 -0.262697,1.047534 0,0.81475 0.05835,1.047534 0.262697,1.047534 0.163458,0 0.262708,0.164888 0.262708,0.436472 0,0.271584 -0.09925,0.436473 -0.262708,0.436473 -0.145941,0 -0.262697,0.15519 -0.262697,0.349178 0,0.193988 0.116756,0.349178 0.262697,0.349178 0.163458,0 0.262708,0.164889 0.262708,0.436472 0,0.271584 -0.09925,0.436474 -0.262708,0.436474 -0.204324,0 -0.262697,0.232785 -0.262697,1.047534 0,0.581962 0.07787,1.047534 0.175128,1.047534 0.0963,0 0.175138,0.196412 0.175138,0.436472 0,0.271584 -0.09924,0.436473 -0.262707,0.436473 -0.144486,0 -0.262697,0.117847 -0.262697,0.261884 0,0.144035 0.118211,0.261883 0.262697,0.261883 0.163467,0 0.262707,0.164888 0.262707,0.436472 0,0.271584 -0.09924,0.436473 -0.262707,0.436473 -0.204324,0 -0.262697,0.232785 -0.262697,1.047535 0,0.581962 0.07787,1.047534 0.175138,1.047534 0.0963,0 0.175128,0.196412 0.175128,0.436472 0,0.271583 -0.09924,0.436472 -0.262697,0.436472 -0.145952,0 -0.262707,0.15519 -0.262707,0.349178 0,0.20432 0.116755,0.349178 0.281441,0.349178 0.184688,0 0.244894,0.09494 0.175139,0.276164 -0.05845,0.151888 -0.106304,0.309018 -0.106304,0.349177 0,0.04015 -0.101954,0.07301 -0.226556,0.07301 -0.312125,0 -0.722646,1.941867 -0.446495,2.112009 0.259487,0.159868 0.05588,0.681415 -0.265966,0.681415 -0.137194,0 -0.297293,0.124274 -0.355765,0.276164 -0.151362,0.393222 -0.139157,0.422193 0.177842,0.422193 0.231619,0 0.244191,0.048 0.06797,0.259615 -0.123958,0.148904 -0.169025,0.446719 -0.105669,0.698356 0.101448,0.402957 0.190088,0.43874 1.086763,0.43874 0.829008,0 0.990118,-0.05268 1.067898,-0.349177 0.110128,-0.419833 0.926416,-0.49675 0.926416,-0.08729 0,0.295772 0.151114,0.326994 0.504065,0.10414 0.132745,-0.08382 0.192763,-0.230761 0.133389,-0.326541 -0.05934,-0.09578 0.08818,-0.211516 0.327827,-0.257192 0.291686,-0.05558 0.435796,-0.0044 0.435796,0.154625 0,0.302365 -0.01605,0.304084 1.120734,-0.119918 0.716126,-0.267103 0.972622,-0.454868 1.013598,-0.742004 0.04458,-0.312518 0.169501,-0.384412 0.667829,-0.384412 0.496219,0 0.612974,-0.0665 0.612974,-0.349178 0,-0.527574 0.253365,-0.812133 0.61987,-0.696176 0.244368,0.07732 0.463266,-0.0829 0.860928,-0.630155 0.540959,-0.744441 0.677312,-1.20521 0.356637,-1.20521 -0.104916,0 -0.08818,-0.141232 0.04131,-0.347872 0.131785,-0.210361 0.334227,-0.311074 0.512149,-0.254783 0.373697,0.118237 0.589464,-0.212943 0.336615,-0.516657 -0.226091,-0.271577 0.200361,-0.731584 0.504511,-0.5442 0.100369,0.06184 0.357795,-0.01 0.572047,-0.159559 0.214252,-0.149598 0.569036,-0.271997 0.788409,-0.271997 0.246053,0 0.398871,-0.105236 0.398871,-0.274685 0,-0.170667 0.116062,-0.249383 0.306487,-0.207867 0.168569,0.03675 0.282621,0.1728 0.253454,0.302332 -0.07084,0.314686 0.340013,0.552066 0.593111,0.34267 0.231231,-0.191311 0.690774,0.245499 0.530407,0.504172 -0.108532,0.175049 0.408818,1.631347 0.636453,1.791583 0.2231,0.157042 -0.04369,0.673225 -0.297758,0.576046 -0.292578,-0.111923 -0.522313,0.477166 -0.251215,0.644188 0.285088,0.175647 0.03794,0.745642 -0.27195,0.627109 -0.283651,-0.108508 -1.418761,1.510735 -1.249944,1.783044 0.189177,0.305139 -0.103539,0.710734 -0.484765,0.671706 -0.271752,-0.02782 -0.379077,0.05909 -0.383773,0.310767 -0.0099,0.509205 -0.253582,0.823794 -0.550915,0.710053 -0.343619,-0.131447 -1.773336,1.044046 -1.742892,1.432971 0.01813,0.232097 -0.116765,0.301013 -0.589405,0.301013 -0.479218,0 -0.602195,0.06468 -0.563607,0.296412 0.0643,0.386255 -0.586749,0.76284 -0.720059,0.416496 -0.0755,-0.196226 -0.273476,-0.171335 -1.066622,0.134138 -0.576,0.221839 -0.942446,0.460587 -0.896942,0.584376 0.0423,0.115114 -0.09283,0.263029 -0.300443,0.328697 -0.225269,0.07127 -0.404013,0.03969 -0.443493,-0.07836 -0.03636,-0.108767 -0.225605,-0.197757 -0.420537,-0.197757 -0.237514,0 -0.3223,0.08343 -0.257041,0.252946 0.124186,0.322619 -0.574505,0.570729 -0.760838,0.270179 -0.211972,-0.341923 -1.947346,-0.04329 -2.051311,0.353004 -0.106422,0.405688 -0.708469,0.564351 -0.893147,0.235378 -0.179695,-0.320091 -0.745442,-0.124929 -0.61561,0.21236 0.0524,0.136089 0.01446,0.247435 -0.08431,0.247435 -0.09878,0 -0.304209,0.04768 -0.456571,0.105973 -0.186214,0.07122 -0.277033,0.0079 -0.277033,-0.193268 0,-0.184346 -0.09382,-0.263334 -0.244468,-0.205722 -0.13446,0.05143 -0.579468,0.193574 -0.9889,0.315862 -0.427928,0.127811 -0.778086,0.350652 -0.823599,0.524142 -0.102956,0.392469 -0.551491,0.558664 -0.847288,0.313939 -0.267403,-0.221238 -0.59844,-0.07585 -0.59844,0.262827 0,0.126613 -0.124225,0.332977 -0.276052,0.458591 -0.228152,0.188761 -0.30188,0.18673 -0.424907,-0.01172 -0.216015,-0.348429 -1.850552,0.681241 -1.808428,1.139214 0.03705,0.402764 -0.495088,0.846002 -0.672366,0.560049 -0.08392,-0.135368 -0.202859,-0.122843 -0.402586,0.0424 -0.19426,0.160718 -0.226775,0.291051 -0.103313,0.414131 0.263105,0.262285 -0.319039,0.873369 -0.6059,0.636032 -0.315303,-0.260861 -1.760843,1.330625 -1.496739,1.647855 0.215718,0.259114 -0.199341,0.73099 -0.487054,0.553732 -0.268969,-0.165714 -0.625328,0.384057 -0.413712,0.638252 0.220374,0.264703 -0.09214,0.741508 -0.486063,0.741508 -0.38938,0 -1.148603,1.464372 -0.940564,1.814119 0.268058,0.450678 0.08877,0.924168 -0.303038,0.800218 -0.255139,-0.0807 -0.336031,-0.0219 -0.336031,0.24431 0,0.19286 0.07143,0.39464 0.158693,0.44842 0.24853,0.15311 0.01793,0.75467 -0.323458,0.84365 -0.17172,0.0447 -0.35418,0.31274 -0.413177,0.60684 -0.05815,0.28967 -0.157424,0.73224 -0.220681,0.98351 -0.08838,0.3509 -0.04973,0.45684 0.166668,0.45684 0.154928,0 0.281689,0.0721 0.281689,0.16031 0,0.35816 -0.227102,0.71263 -0.45658,0.71263 -0.134172,0 -0.243963,0.15714 -0.243963,0.34918 0,0.19205 0.110841,0.34918 0.246311,0.34918 0.160079,0 0.214241,0.12223 0.15471,0.34917 -0.05033,0.19205 -0.20063,0.34919 -0.333881,0.34919 -0.181428,0 -0.242268,0.285 -0.242268,1.13483 0,0.89234 0.05617,1.13482 0.262697,1.13482 0.145942,0 0.262707,0.1552 0.262707,0.34918 0,0.19399 -0.116765,0.34918 -0.262707,0.34918 -0.145942,0 -0.262697,0.1552 -0.262697,0.34918 0,0.19398 0.116755,0.34918 0.262697,0.34918 0.163458,0 0.262707,0.16488 0.262707,0.43647 0,0.27158 -0.09925,0.43647 -0.262707,0.43647 -0.18347,0 -0.262697,0.18429 -0.262697,0.61107 0,0.5354 -0.05419,0.61105 -0.437846,0.61105 -0.272426,0 -0.437835,-0.0989 -0.437835,-0.26188 0,-0.14403 -0.118212,-0.26188 -0.262698,-0.26188 -0.144486,0 -0.262707,0.11785 -0.262707,0.26188 0,0.16295 -0.1654,0.26188 -0.437836,0.26188 -0.272436,0 -0.437835,-0.0989 -0.437835,-0.26188 0,-0.20369 -0.233511,-0.26188 -1.05081,-0.26188 -0.817298,0 -1.050809,0.0582 -1.050809,0.26188 0,0.16295 -0.16541,0.26188 -0.437836,0.26188 -0.272436,0 -0.437835,-0.0989 -0.437835,-0.26188 z"
       id="path74" /></g></svg>
